<?xml version="1.0" encoding="UTF-8" standalone="no"?>
<svg width="780px" height="780px" viewBox="0 0 780 780" version="1.1" xmlns="http://www.w3.org/2000/svg" xmlns:xlink="http://www.w3.org/1999/xlink" xmlns:sketch="http://www.bohemiancoding.com/sketch/ns">
    <!-- Generator: Sketch 3.0.4 (8053) - http://www.bohemiancoding.com/sketch -->
    <title>Artboard 1</title>
    <desc>Created with Sketch.</desc>
    <defs>
        <rect id="path-1" x="0" y="0" width="267" height="200" rx="3"></rect>
        <rect id="path-3" x="0" y="0" width="267" height="200" rx="3"></rect>
    </defs>
    <g id="Page-1" stroke="none" stroke-width="1" fill="none" fill-rule="evenodd" sketch:type="MSPage">
        <g id="Artboard-1" sketch:type="MSArtboardGroup">
            <g id="Group" sketch:type="MSLayerGroup" transform="translate(49.000000, 88.000000)">
                <g id="Rectangle-1-+-Rectangle-2" transform="translate(416.000000, 29.000000)">
                    <mask id="mask-2" sketch:name="Rectangle 1" fill="white">
                        <use xlink:href="#path-1"></use>
                    </mask>
                    <use id="Rectangle-1" stroke="#D5D7D9" stroke-width="4" fill-opacity="0" fill="#D8D8D8" sketch:type="MSShapeGroup" xlink:href="#path-1"></use>
                    <rect id="Rectangle-2" fill="#D5D7D9" sketch:type="MSShapeGroup" mask="url(#mask-2)" x="0" y="0" width="267" height="20"></rect>
                    <path d="M8,14 C10.209139,14 12,12.209139 12,10 C12,7.790861 10.209139,6 8,6 C5.790861,6 4,7.790861 4,10 C4,12.209139 5.790861,14 8,14 Z" id="Oval-1" opacity="0.200000003" fill="#000000" sketch:type="MSShapeGroup" mask="url(#mask-2)"></path>
                    <circle id="Oval-2" opacity="0.200000003" fill="#000000" sketch:type="MSShapeGroup" mask="url(#mask-2)" cx="19" cy="10" r="4"></circle>
                    <circle id="Oval-3" opacity="0.200000003" fill="#000000" sketch:type="MSShapeGroup" mask="url(#mask-2)" cx="31" cy="10" r="4"></circle>
                </g>
                <text id="CLIENT" sketch:type="MSTextLayer" font-family="Lato" font-size="16" font-weight="686" sketch:alignment="middle" line-spacing="18" fill="#4681CF">
                    <tspan x="522" y="16">CLIENT</tspan>
                </text>
                <text id="SERVER" sketch:type="MSTextLayer" font-family="Lato" font-size="16" font-weight="686" sketch:alignment="middle" line-spacing="18" fill="#4681CF">
                    <tspan x="124" y="16">SERVER</tspan>
                </text>
                <path d="M47.3297299,106.698768 C20.1802931,113.203158 0,137.627633 0,166.776062 C0,200.894039 27.6562561,228.552124 61.7806957,228.552124 L247.182261,228.552124 C281.302797,228.552124 308.962956,200.90154 308.962956,166.776062 C308.962956,142.025551 294.408527,120.674634 273.388656,110.816162 L273.388656,110.816162 C271.942057,65.3852377 234.648085,29 188.853607,29 C157.737496,29 130.545929,45.7984655 115.857659,70.8189384 C110.732451,69.2350855 105.286125,68.3822394 99.6405534,68.3822394 C75.1075157,68.3822394 54.3369822,84.4871163 47.3297299,106.698768 Z" id="Cloud" stroke="#D4D7D9" stroke-width="4" stroke-linecap="round" stroke-linejoin="round" sketch:type="MSShapeGroup"></path>
                <g id="DATA-+-db" transform="translate(182.000000, 100.000000)" fill="#4681CF">
                    <text id="DATA" sketch:type="MSTextLayer" font-family="Lato" font-size="16" font-weight="686" sketch:alignment="middle" line-spacing="18">
                        <tspan x="3" y="16">DATA</tspan>
                    </text>
                    <g id="db" transform="translate(0.000000, 25.000000)" stroke="#FFFFFF" stroke-width="2" sketch:type="MSShapeGroup">
                        <path d="M50,38 C50,33.581722 38.8071187,30 25,30 C11.1928813,30 0,33.581722 0,38 L50,38 Z M0,48 C0,52.418278 11.1928813,56 25,56 C38.8071187,56 50,52.418278 50,48 L0,48 Z M0,38 L0,48 L50,48 L50,38 L0,38 Z" id="Oval-6"></path>
                        <path d="M50,23 C50,18.581722 38.8071187,15 25,15 C11.1928813,15 0,18.581722 0,23 L50,23 Z M0,33 C0,37.418278 11.1928813,41 25,41 C38.8071187,41 50,37.418278 50,33 L0,33 Z M0,23 L0,33 L50,33 L50,23 L0,23 Z" id="Oval-5"></path>
                        <path d="M50,8 C50,3.581722 38.8071187,0 25,0 C11.1928813,0 0,3.581722 0,8 L50,8 Z M0,18 C0,22.418278 11.1928813,26 25,26 C38.8071187,26 50,22.418278 50,18 L0,18 Z M0,8 L0,18 L50,18 L50,8 L0,8 Z" id="Oval-4"></path>
                    </g>
                </g>
                <path d="M381.5,130 L331.5,130" id="Line" stroke="#979797" stroke-width="2" stroke-linecap="square" sketch:type="MSShapeGroup"></path>
                <path id="Line-decoration-1" d="M369.9,127 C373.68,128.05 376.92,128.95 380.7,130 C376.92,131.05 373.68,131.95 369.9,133" stroke="#979797" stroke-width="2" stroke-linecap="square"></path>
                <path id="Line-decoration-2" d="M342.3,127 C338.52,128.05 335.28,128.95 331.5,130 C335.28,131.05 338.52,131.95 342.3,133" stroke="#979797" stroke-width="2" stroke-linecap="square"></path>
                <g id="icon-files-+-APP" transform="translate(82.000000, 100.000000)" fill="#4681CF">
                    <g id="icon-files" transform="translate(0.000000, 28.000000)" sketch:type="MSShapeGroup">
                        <path d="M47.3632812,10.7421875 C48.046875,10.7421875 48.7304688,10.9375 49.21875,11.5234375 C49.7070312,12.0117188 50,12.6953125 50,13.3789062 L50,47.3632812 C50,48.046875 49.7070312,48.7304688 49.21875,49.21875 C48.7304688,49.7070312 48.046875,50 47.3632812,50 L20.5078125,50 C19.8242188,50 19.140625,49.7070312 18.6523438,49.21875 C18.1640625,48.7304688 17.8710938,48.046875 17.8710938,47.3632812 L17.8710938,39.2578125 L2.63671875,39.2578125 C1.953125,39.2578125 1.26953125,39.0625 0.78125,38.4765625 C0.29296875,37.9882812 0,37.3046875 0,36.6210938 L0,17.8710938 C0,17.0898438 0.1953125,16.3085938 0.5859375,15.4296875 C0.9765625,14.5507812 1.3671875,13.7695312 1.85546875,13.28125 L13.28125,1.85546875 C13.7695312,1.3671875 14.5507812,0.9765625 15.4296875,0.5859375 C16.3085938,0.1953125 17.0898438,0 17.8710938,0 L29.4921875,0 C30.1757812,0 30.859375,0.29296875 31.3476562,0.78125 C31.8359375,1.26953125 32.1289062,1.953125 32.1289062,2.63671875 L32.1289062,11.8164062 C33.3984375,11.1328125 34.5703125,10.7421875 35.7421875,10.7421875 L47.3632812,10.7421875 Z M32.1289062,16.6992188 L23.828125,25 L32.1289062,25 L32.1289062,16.6992188 Z M14.2578125,5.95703125 L5.95703125,14.2578125 L14.2578125,14.2578125 L14.2578125,5.95703125 Z M19.7265625,24.0234375 L28.6132812,15.1367188 L28.6132812,3.61328125 L17.8710938,3.61328125 L17.8710938,15.1367188 C17.8710938,15.9179688 17.578125,16.6015625 17.0898438,17.0898438 C16.6015625,17.578125 15.9179688,17.8710938 15.1367188,17.8710938 L3.61328125,17.8710938 L3.61328125,35.7421875 L17.8710938,35.7421875 L17.8710938,28.6132812 C17.8710938,27.8320312 18.0664062,27.0507812 18.4570312,26.0742188 C18.75,25.1953125 19.2382812,24.5117188 19.7265625,24.0234375 L19.7265625,24.0234375 Z M46.3867188,46.3867188 L46.3867188,14.2578125 L35.7421875,14.2578125 L35.7421875,25.8789062 C35.7421875,26.6601562 35.4492188,27.2460938 34.9609375,27.8320312 C34.375,28.3203125 33.7890625,28.6132812 33.0078125,28.6132812 L21.3867188,28.6132812 L21.3867188,46.3867188 L46.3867188,46.3867188 Z" id="Shape"></path>
                    </g>
                    <text id="APP" sketch:type="MSTextLayer" font-family="Lato" font-size="16" font-weight="686" sketch:alignment="middle" line-spacing="18">
                        <tspan x="9" y="16">APP</tspan>
                    </text>
                </g>
            </g>
            <text id="MODERN" sketch:type="MSTextLayer" font-family="Lato" font-size="25" font-weight="260" sketch:alignment="middle" fill="#4681CF">
                <tspan x="335.48125" y="444">MODERN</tspan>
            </text>
            <text id="TRADITIONAL" sketch:type="MSTextLayer" font-family="Lato" font-size="25" font-weight="260" sketch:alignment="middle" fill="#4681CF">
                <tspan x="310.38125" y="52">TRADITIONAL</tspan>
            </text>
            <g id="Group" sketch:type="MSLayerGroup" transform="translate(49.000000, 488.000000)">
                <g id="Rectangle-1-+-Rectangle-3" transform="translate(416.000000, 29.000000)">
                    <mask id="mask-4" sketch:name="Rectangle 1" fill="white">
                        <use xlink:href="#path-3"></use>
                    </mask>
                    <use id="Rectangle-1" stroke="#D5D7D9" stroke-width="4" fill-opacity="0" fill="#D8D8D8" sketch:type="MSShapeGroup" xlink:href="#path-3"></use>
                    <rect id="Rectangle-2" fill="#D5D7D9" sketch:type="MSShapeGroup" mask="url(#mask-4)" x="0" y="0" width="267" height="20"></rect>
                    <path d="M8,14 C10.209139,14 12,12.209139 12,10 C12,7.790861 10.209139,6 8,6 C5.790861,6 4,7.790861 4,10 C4,12.209139 5.790861,14 8,14 Z" id="Oval-1" opacity="0.200000003" fill="#000000" sketch:type="MSShapeGroup" mask="url(#mask-4)"></path>
                    <circle id="Oval-2" opacity="0.200000003" fill="#000000" sketch:type="MSShapeGroup" mask="url(#mask-4)" cx="19" cy="10" r="4"></circle>
                    <circle id="Oval-3" opacity="0.200000003" fill="#000000" sketch:type="MSShapeGroup" mask="url(#mask-4)" cx="31" cy="10" r="4"></circle>
                </g>
                <text id="CLIENT-2" sketch:type="MSTextLayer" font-family="Lato" font-size="16" font-weight="686" sketch:alignment="middle" line-spacing="18" fill="#4681CF">
                    <tspan x="522" y="16">CLIENT</tspan>
                </text>
                <text id="SERVER" sketch:type="MSTextLayer" font-family="Lato" font-size="16" font-weight="686" sketch:alignment="middle" line-spacing="18" fill="#4681CF">
                    <tspan x="124" y="16">SERVER</tspan>
                </text>
                <path d="M47.1794941,107.182838 C20.1058792,113.741198 0,138.129301 0,167.223938 C0,201.341915 27.6562561,229 61.7806957,229 L247.182261,229 C281.302797,229 308.962956,201.349417 308.962956,167.223938 C308.962956,142.478631 294.414646,121.131488 273.401912,111.270258 L273.401912,111.270258 C272.190308,65.6279353 234.800561,29 188.853607,29 C157.737496,29 130.545929,45.7984655 115.857659,70.8189384 C110.732451,69.2350855 105.286125,68.3822394 99.6405534,68.3822394 C74.9296486,68.3822394 54.0360028,84.721487 47.1794941,107.182838 Z" id="Cloud-2" stroke="#D4D7D9" stroke-width="4" stroke-linecap="round" stroke-linejoin="round" sketch:type="MSShapeGroup"></path>
                <g id="DATA-+-db-2" transform="translate(182.000000, 100.000000)" fill="#4681CF">
                    <text id="DATA" sketch:type="MSTextLayer" font-family="Lato" font-size="16" font-weight="686" sketch:alignment="middle" line-spacing="18">
                        <tspan x="3" y="16">DATA</tspan>
                    </text>
                    <g id="db" transform="translate(0.000000, 25.000000)" stroke="#FFFFFF" stroke-width="2" sketch:type="MSShapeGroup">
                        <path d="M50,38 C50,33.581722 38.8071187,30 25,30 C11.1928813,30 0,33.581722 0,38 L50,38 Z M0,48 C0,52.418278 11.1928813,56 25,56 C38.8071187,56 50,52.418278 50,48 L0,48 Z M0,38 L0,48 L50,48 L50,38 L0,38 Z" id="Oval-6"></path>
                        <path d="M50,23 C50,18.581722 38.8071187,15 25,15 C11.1928813,15 0,18.581722 0,23 L50,23 Z M0,33 C0,37.418278 11.1928813,41 25,41 C38.8071187,41 50,37.418278 50,33 L0,33 Z M0,23 L0,33 L50,33 L50,23 L0,23 Z" id="Oval-5"></path>
                        <path d="M50,8 C50,3.581722 38.8071187,0 25,0 C11.1928813,0 0,3.581722 0,8 L50,8 Z M0,18 C0,22.418278 11.1928813,26 25,26 C38.8071187,26 50,22.418278 50,18 L0,18 Z M0,8 L0,18 L50,18 L50,8 L0,8 Z" id="Oval-4"></path>
                    </g>
                </g>
                <path d="M381.5,130 L331.5,130" id="Line-2" stroke="#979797" stroke-width="2" stroke-linecap="square" sketch:type="MSShapeGroup"></path>
                <path id="Line-2-decoration-1" d="M369.9,127 C373.68,128.05 376.92,128.95 380.7,130 C376.92,131.05 373.68,131.95 369.9,133" stroke="#979797" stroke-width="2" stroke-linecap="square"></path>
                <path id="Line-2-decoration-2" d="M342.3,127 C338.52,128.05 335.28,128.95 331.5,130 C335.28,131.05 338.52,131.95 342.3,133" stroke="#979797" stroke-width="2" stroke-linecap="square"></path>
                <g id="DATA-+-db-2" transform="translate(573.000000, 99.000000)" fill="#4681CF">
                    <text id="DATA" sketch:type="MSTextLayer" font-family="Lato" font-size="16" font-weight="686" sketch:alignment="middle" line-spacing="18">
                        <tspan x="3" y="16">DATA</tspan>
                    </text>
                    <g id="db" transform="translate(0.000000, 25.000000)" stroke="#FFFFFF" stroke-width="2" sketch:type="MSShapeGroup">
                        <path d="M50,38 C50,33.581722 38.8071187,30 25,30 C11.1928813,30 0,33.581722 0,38 L50,38 Z M0,48 C0,52.418278 11.1928813,56 25,56 C38.8071187,56 50,52.418278 50,48 L0,48 Z M0,38 L0,48 L50,48 L50,38 L0,38 Z" id="Oval-6"></path>
                        <path d="M50,23 C50,18.581722 38.8071187,15 25,15 C11.1928813,15 0,18.581722 0,23 L50,23 Z M0,33 C0,37.418278 11.1928813,41 25,41 C38.8071187,41 50,37.418278 50,33 L0,33 Z M0,23 L0,33 L50,33 L50,23 L0,23 Z" id="Oval-5"></path>
                        <path d="M50,8 C50,3.581722 38.8071187,0 25,0 C11.1928813,0 0,3.581722 0,8 L50,8 Z M0,18 C0,22.418278 11.1928813,26 25,26 C38.8071187,26 50,22.418278 50,18 L0,18 Z M0,8 L0,18 L50,18 L50,8 L0,8 Z" id="Oval-4"></path>
                    </g>
                </g>
                <g id="icon-files-+-APP-2" transform="translate(476.000000, 100.000000)" fill="#4681CF">
                    <g id="icon-files" transform="translate(0.000000, 28.000000)" sketch:type="MSShapeGroup">
                        <path d="M47.3632812,10.7421875 C48.046875,10.7421875 48.7304688,10.9375 49.21875,11.5234375 C49.7070312,12.0117188 50,12.6953125 50,13.3789062 L50,47.3632812 C50,48.046875 49.7070312,48.7304688 49.21875,49.21875 C48.7304688,49.7070312 48.046875,50 47.3632812,50 L20.5078125,50 C19.8242188,50 19.140625,49.7070312 18.6523438,49.21875 C18.1640625,48.7304688 17.8710938,48.046875 17.8710938,47.3632812 L17.8710938,39.2578125 L2.63671875,39.2578125 C1.953125,39.2578125 1.26953125,39.0625 0.78125,38.4765625 C0.29296875,37.9882812 0,37.3046875 0,36.6210938 L0,17.8710938 C0,17.0898438 0.1953125,16.3085938 0.5859375,15.4296875 C0.9765625,14.5507812 1.3671875,13.7695312 1.85546875,13.28125 L13.28125,1.85546875 C13.7695312,1.3671875 14.5507812,0.9765625 15.4296875,0.5859375 C16.3085938,0.1953125 17.0898438,0 17.8710938,0 L29.4921875,0 C30.1757812,0 30.859375,0.29296875 31.3476562,0.78125 C31.8359375,1.26953125 32.1289062,1.953125 32.1289062,2.63671875 L32.1289062,11.8164062 C33.3984375,11.1328125 34.5703125,10.7421875 35.7421875,10.7421875 L47.3632812,10.7421875 Z M32.1289062,16.6992188 L23.828125,25 L32.1289062,25 L32.1289062,16.6992188 Z M14.2578125,5.95703125 L5.95703125,14.2578125 L14.2578125,14.2578125 L14.2578125,5.95703125 Z M19.7265625,24.0234375 L28.6132812,15.1367188 L28.6132812,3.61328125 L17.8710938,3.61328125 L17.8710938,15.1367188 C17.8710938,15.9179688 17.578125,16.6015625 17.0898438,17.0898438 C16.6015625,17.578125 15.9179688,17.8710938 15.1367188,17.8710938 L3.61328125,17.8710938 L3.61328125,35.7421875 L17.8710938,35.7421875 L17.8710938,28.6132812 C17.8710938,27.8320312 18.0664062,27.0507812 18.4570312,26.0742188 C18.75,25.1953125 19.2382812,24.5117188 19.7265625,24.0234375 L19.7265625,24.0234375 Z M46.3867188,46.3867188 L46.3867188,14.2578125 L35.7421875,14.2578125 L35.7421875,25.8789062 C35.7421875,26.6601562 35.4492188,27.2460938 34.9609375,27.8320312 C34.375,28.3203125 33.7890625,28.6132812 33.0078125,28.6132812 L21.3867188,28.6132812 L21.3867188,46.3867188 L46.3867188,46.3867188 Z" id="Shape"></path>
                    </g>
                    <text id="APP" sketch:type="MSTextLayer" font-family="Lato" font-size="16" font-weight="686" sketch:alignment="middle" line-spacing="18">
                        <tspan x="9" y="16">APP</tspan>
                    </text>
                </g>
            </g>
        </g>
    </g>
</svg>